<svg width="24" height="17" viewBox="0 0 24 17" fill="none" xmlns="http://www.w3.org/2000/svg">
<path d="M23.1966 6.46875L21.8841 3.1875C21.7727 2.90973 21.5804 2.67184 21.3321 2.50467C21.0839 2.33751 20.7912 2.24878 20.4919 2.25H17.25V1.5C17.25 1.30109 17.171 1.11032 17.0303 0.96967C16.8897 0.829018 16.6989 0.75 16.5 0.75H2.25C1.85218 0.75 1.47064 0.908035 1.18934 1.18934C0.908035 1.47064 0.75 1.85218 0.75 2.25V12.75C0.75 13.1478 0.908035 13.5294 1.18934 13.8107C1.47064 14.092 1.85218 14.25 2.25 14.25H3.84375C4.00898 14.8953 4.38428 15.4673 4.91048 15.8757C5.43669 16.2842 6.08387 16.5059 6.75 16.5059C7.41613 16.5059 8.06331 16.2842 8.58952 15.8757C9.11572 15.4673 9.49102 14.8953 9.65625 14.25H14.3438C14.509 14.8953 14.8843 15.4673 15.4105 15.8757C15.9367 16.2842 16.5839 16.5059 17.25 16.5059C17.9161 16.5059 18.5633 16.2842 19.0895 15.8757C19.6157 15.4673 19.991 14.8953 20.1562 14.25H21.75C22.1478 14.25 22.5294 14.092 22.8107 13.8107C23.092 13.5294 23.25 13.1478 23.25 12.75V6.75C23.2501 6.65372 23.232 6.55828 23.1966 6.46875ZM6.75 15C6.45333 15 6.16332 14.912 5.91665 14.7472C5.66997 14.5824 5.47771 14.3481 5.36418 14.074C5.25065 13.7999 5.22094 13.4983 5.27882 13.2074C5.3367 12.9164 5.47956 12.6491 5.68934 12.4393C5.89912 12.2296 6.16639 12.0867 6.45736 12.0288C6.74834 11.9709 7.04994 12.0006 7.32403 12.1142C7.59811 12.2277 7.83238 12.42 7.9972 12.6666C8.16203 12.9133 8.25 13.2033 8.25 13.5C8.25 13.8978 8.09196 14.2794 7.81066 14.5607C7.52936 14.842 7.14782 15 6.75 15ZM2.25 8.25V2.25H15.75V8.25H2.25ZM17.25 15C16.9533 15 16.6633 14.912 16.4166 14.7472C16.17 14.5824 15.9777 14.3481 15.8642 14.074C15.7506 13.7999 15.7209 13.4983 15.7788 13.2074C15.8367 12.9164 15.9796 12.6491 16.1893 12.4393C16.3991 12.2296 16.6664 12.0867 16.9574 12.0288C17.2483 11.9709 17.5499 12.0006 17.824 12.1142C18.0981 12.2277 18.3324 12.42 18.4972 12.6666C18.662 12.9133 18.75 13.2033 18.75 13.5C18.75 13.8978 18.592 14.2794 18.3107 14.5607C18.0294 14.842 17.6478 15 17.25 15ZM17.25 6V3.75H20.4919L21.3919 6H17.25Z" fill="#999999"/>
</svg>
