<svg width="22" height="19" viewBox="0 0 22 19" fill="none" xmlns="http://www.w3.org/2000/svg">
<path d="M19.25 0.875H2.75C2.25272 0.875 1.77581 1.07254 1.42417 1.42417C1.07254 1.77581 0.875 2.25272 0.875 2.75V16.25C0.875 16.7473 1.07254 17.2242 1.42417 17.5758C1.77581 17.9275 2.25272 18.125 2.75 18.125H19.25C19.7473 18.125 20.2242 17.9275 20.5758 17.5758C20.9275 17.2242 21.125 16.7473 21.125 16.25V2.75C21.125 2.25272 20.9275 1.77581 20.5758 1.42417C20.2242 1.07254 19.7473 0.875 19.25 0.875ZM18.875 3.125V5.375H3.125V3.125H18.875ZM3.125 15.875V7.625H18.875V15.875H3.125Z" fill="#999999"/>
</svg>
