<svg width="35" height="21" viewBox="0 0 35 21" fill="none" xmlns="http://www.w3.org/2000/svg">
<path d="M32.8125 0.109375H2.1875C1.75238 0.109375 1.33508 0.282226 1.0274 0.589903C0.719726 0.89758 0.546875 1.31488 0.546875 1.75V19.25C0.546875 19.6851 0.719726 20.1024 1.0274 20.4101C1.33508 20.7178 1.75238 20.8906 2.1875 20.8906H32.8125C33.2476 20.8906 33.6649 20.7178 33.9726 20.4101C34.2803 20.1024 34.4531 19.6851 34.4531 19.25V1.75C34.4531 1.31488 34.2803 0.89758 33.9726 0.589903C33.6649 0.282226 33.2476 0.109375 32.8125 0.109375ZM24.7748 17.6094H10.2252C9.90057 16.0347 9.12169 14.5896 7.9848 13.4527C6.8479 12.3158 5.40282 11.5369 3.82812 11.2123V9.7877C5.40282 9.46307 6.8479 8.68419 7.9848 7.5473C9.12169 6.4104 9.90057 4.96532 10.2252 3.39062H24.7748C25.0994 4.96532 25.8783 6.4104 27.0152 7.5473C28.1521 8.68419 29.5972 9.46307 31.1719 9.7877V11.2123C29.5972 11.5369 28.1521 12.3158 27.0152 13.4527C25.8783 14.5896 25.0994 16.0347 24.7748 17.6094ZM31.1719 6.39023C30.481 6.14358 29.8535 5.74654 29.3347 5.22779C28.816 4.70904 28.4189 4.08154 28.1723 3.39062H31.1719V6.39023ZM6.82773 3.39062C6.58108 4.08154 6.18404 4.70904 5.66529 5.22779C5.14654 5.74654 4.51904 6.14358 3.82812 6.39023V3.39062H6.82773ZM3.82812 14.6098C4.51904 14.8564 5.14654 15.2535 5.66529 15.7722C6.18404 16.291 6.58108 16.9185 6.82773 17.6094H3.82812V14.6098ZM28.1723 17.6094C28.4189 16.9185 28.816 16.291 29.3347 15.7722C29.8535 15.2535 30.481 14.8564 31.1719 14.6098V17.6094H28.1723ZM17.5 5.03125C16.4184 5.03125 15.3611 5.35199 14.4617 5.9529C13.5624 6.55381 12.8615 7.40792 12.4475 8.4072C12.0336 9.40648 11.9253 10.5061 12.1363 11.5669C12.3473 12.6277 12.8682 13.6022 13.633 14.367C14.3978 15.1318 15.3723 15.6527 16.4331 15.8637C17.4939 16.0747 18.5935 15.9664 19.5928 15.5525C20.5921 15.1385 21.4462 14.4376 22.0471 13.5383C22.648 12.6389 22.9688 11.5816 22.9688 10.5C22.9688 9.0496 22.3926 7.6586 21.367 6.63301C20.3414 5.60742 18.9504 5.03125 17.5 5.03125ZM17.5 12.6875C17.0674 12.6875 16.6444 12.5592 16.2847 12.3188C15.925 12.0785 15.6446 11.7368 15.479 11.3371C15.3134 10.9374 15.2701 10.4976 15.3545 10.0732C15.4389 9.64891 15.6473 9.25913 15.9532 8.9532C16.2591 8.64728 16.6489 8.43894 17.0732 8.35453C17.4976 8.27013 17.9374 8.31345 18.3371 8.47901C18.7368 8.64458 19.0785 8.92496 19.3188 9.28469C19.5592 9.64442 19.6875 10.0674 19.6875 10.5C19.6875 11.0802 19.457 11.6366 19.0468 12.0468C18.6366 12.457 18.0802 12.6875 17.5 12.6875Z" fill="#999999"/>
</svg>
