<svg width="24" height="16" viewBox="0 0 24 16" fill="none" xmlns="http://www.w3.org/2000/svg">
<path d="M11.7356 11.2131C12.6779 10.4211 13.3537 9.35849 13.6716 8.16934C13.9894 6.9802 13.9338 5.72208 13.5123 4.5656C13.0908 3.40913 12.3239 2.41027 11.3154 1.70447C10.307 0.998683 9.10591 0.620117 7.87502 0.620117C6.64414 0.620117 5.44304 0.998683 4.43461 1.70447C3.42618 2.41027 2.65922 3.40913 2.23774 4.5656C1.81626 5.72208 1.76066 6.9802 2.07848 8.16934C2.3963 9.35849 3.07216 10.4211 4.0144 11.2131C2.54307 11.8784 1.26801 12.9116 0.312212 14.2131C0.135677 14.4537 0.0619346 14.7545 0.107207 15.0494C0.15248 15.3444 0.313058 15.6092 0.553618 15.7858C0.794178 15.9623 1.09501 16.036 1.38994 15.9908C1.68487 15.9455 1.94974 15.7849 2.12627 15.5444C2.78791 14.6407 3.65324 13.9058 4.65206 13.3992C5.65089 12.8926 6.75507 12.6286 7.87502 12.6286C8.99498 12.6286 10.0992 12.8926 11.098 13.3992C12.0968 13.9058 12.9621 14.6407 13.6238 15.5444C13.8003 15.785 14.0652 15.9457 14.3602 15.9911C14.6553 16.0365 14.9562 15.9628 15.1969 15.7862C15.4376 15.6097 15.5983 15.3448 15.6436 15.0498C15.689 14.7547 15.6153 14.4538 15.4388 14.2131C14.4824 12.9118 13.2071 11.8786 11.7356 11.2131ZM4.12502 6.62498C4.12502 5.8833 4.34496 5.15828 4.75701 4.5416C5.16907 3.92491 5.75474 3.44426 6.43996 3.16044C7.12519 2.87661 7.87918 2.80234 8.60661 2.94704C9.33404 3.09173 10.0022 3.44889 10.5267 3.97333C11.0511 4.49778 11.4083 5.16597 11.553 5.8934C11.6977 6.62082 11.6234 7.37482 11.3396 8.06005C11.0557 8.74527 10.5751 9.33094 9.95841 9.743C9.34173 10.1551 8.6167 10.375 7.87502 10.375C6.88046 10.375 5.92664 9.9799 5.22337 9.27663C4.52011 8.57337 4.12502 7.61955 4.12502 6.62498ZM23.4469 15.7815C23.3278 15.8691 23.1926 15.9323 23.0491 15.9675C22.9056 16.0028 22.7565 16.0094 22.6104 15.987C22.4643 15.9646 22.3241 15.9137 22.1977 15.8371C22.0713 15.7605 21.9612 15.6598 21.8738 15.5406C21.2105 14.6387 20.3448 13.9051 19.3464 13.3987C18.3479 12.8923 17.2446 12.6273 16.125 12.625C15.8267 12.625 15.5405 12.5065 15.3295 12.2955C15.1186 12.0845 15 11.7984 15 11.5C15 11.2016 15.1186 10.9155 15.3295 10.7045C15.5405 10.4935 15.8267 10.375 16.125 10.375C16.6772 10.3743 17.2224 10.2518 17.7217 10.016C18.221 9.78029 18.6621 9.4372 19.0134 9.01127C19.3648 8.58533 19.6177 8.08706 19.7542 7.55205C19.8907 7.01704 19.9074 6.45848 19.8031 5.91628C19.6987 5.37408 19.4759 4.86161 19.1506 4.41548C18.8252 3.96935 18.4054 3.60056 17.9211 3.33546C17.4367 3.07037 16.8998 2.9155 16.3487 2.88193C15.7975 2.84835 15.2458 2.93689 14.7328 3.14123C14.5954 3.1975 14.4482 3.226 14.2998 3.22511C14.1513 3.22421 14.0045 3.19394 13.8678 3.13603C13.731 3.07811 13.6071 2.99371 13.5032 2.88769C13.3993 2.78166 13.3173 2.65611 13.2621 2.51827C13.207 2.38042 13.1796 2.23302 13.1817 2.08456C13.1837 1.9361 13.2151 1.78951 13.2741 1.65325C13.3331 1.51699 13.4185 1.39375 13.5253 1.29064C13.6321 1.18753 13.7583 1.10659 13.8966 1.05248C15.2206 0.52237 16.6902 0.481239 18.0418 0.936467C19.3935 1.3917 20.5387 2.31351 21.2723 3.53663C22.0058 4.75974 22.2797 6.20417 22.0448 7.61091C21.8099 9.01766 21.0815 10.2947 19.9903 11.2131C21.4617 11.8784 22.7367 12.9116 23.6925 14.2131C23.8673 14.4539 23.9396 14.7541 23.8936 15.048C23.8475 15.342 23.6869 15.6057 23.4469 15.7815Z" fill="#999999"/>
</svg>
