<svg width="54" height="54" viewBox="0 0 54 54" fill="none" xmlns="http://www.w3.org/2000/svg">
<g filter="url(#filter0_d_3459_3763)">
<rect x="10" y="2" width="34" height="34" rx="8" fill="white"/>
<path d="M30.5156 11.9688C29.103 11.9688 27.8494 12.5263 27 13.4847C26.1506 12.5263 24.897 11.9688 23.4844 11.9688C22.2541 11.9702 21.0746 12.4596 20.2046 13.3296C19.3346 14.1996 18.8452 15.3791 18.8438 16.6094C18.8438 21.6958 26.2835 25.7598 26.5999 25.9307C26.7229 25.9969 26.8603 26.0316 27 26.0316C27.1397 26.0316 27.2771 25.9969 27.4001 25.9307C27.7165 25.7598 35.1562 21.6958 35.1562 16.6094C35.1548 15.3791 34.6654 14.1996 33.7954 13.3296C32.9254 12.4596 31.7459 11.9702 30.5156 11.9688ZM30.1296 21.9784C29.1503 22.8094 28.1035 23.5573 27 24.2144C25.8965 23.5573 24.8497 22.8094 23.8704 21.9784C22.3467 20.6713 20.5312 18.678 20.5312 16.6094C20.5312 15.8262 20.8424 15.075 21.3962 14.5212C21.95 13.9674 22.7012 13.6562 23.4844 13.6562C24.7359 13.6562 25.7836 14.3172 26.2188 15.3817C26.2822 15.5369 26.3903 15.6697 26.5294 15.7632C26.6686 15.8567 26.8324 15.9066 27 15.9066C27.1676 15.9066 27.3314 15.8567 27.4706 15.7632C27.6097 15.6697 27.7178 15.5369 27.7812 15.3817C28.2164 14.3172 29.2641 13.6562 30.5156 13.6562C31.2988 13.6562 32.05 13.9674 32.6038 14.5212C33.1576 15.075 33.4688 15.8262 33.4688 16.6094C33.4688 18.678 31.6533 20.6713 30.1296 21.9784Z" fill="#115DB1"/>
</g>
<defs>
<filter id="filter0_d_3459_3763" x="0" y="0" width="54" height="54" filterUnits="userSpaceOnUse" color-interpolation-filters="sRGB">
<feFlood flood-opacity="0" result="BackgroundImageFix"/>
<feColorMatrix in="SourceAlpha" type="matrix" values="0 0 0 0 0 0 0 0 0 0 0 0 0 0 0 0 0 0 127 0" result="hardAlpha"/>
<feOffset dy="8"/>
<feGaussianBlur stdDeviation="5"/>
<feComposite in2="hardAlpha" operator="out"/>
<feColorMatrix type="matrix" values="0 0 0 0 0.320833 0 0 0 0 0.320833 0 0 0 0 0.320833 0 0 0 0.25 0"/>
<feBlend mode="normal" in2="BackgroundImageFix" result="effect1_dropShadow_3459_3763"/>
<feBlend mode="normal" in="SourceGraphic" in2="effect1_dropShadow_3459_3763" result="shape"/>
</filter>
</defs>
</svg>
