<svg width="390" height="300" viewBox="0 -20 390 300" fill="none" xmlns="http://www.w3.org/2000/svg">
<path fill-rule="evenodd" clip-rule="evenodd" d="M149.473 742C219.361 739.38 255.58 658.9 312.316 618.01C367.75 578.05 457.296 570.72 477.633 505.48C498.021 440.08 424.555 384.2 405.739 318.331C386.408 250.661 412.611 169.251 366.418 116.155C317.645 60.093 236.315 27.293 162.983 39.297C92.2943 50.869 62.0288 134.016 3.66089 175.537C-53.8421 216.442 -144.304 215.893 -174.756 279.552C-205.451 343.719 -172.909 420.264 -144.626 485.53C-118.878 544.94 -71.4473 588 -22.6438 630.56C30.1606 676.61 79.4587 744.63 149.473 742Z" stroke="#333333" stroke-width="2"/>
<path fill-rule="evenodd" clip-rule="evenodd" d="M149.26 705.71C211.961 703.36 244.456 631.15 295.358 594.46C345.092 558.61 425.43 552.03 443.675 493.5C461.967 434.83 396.055 384.696 379.174 325.599C361.831 264.888 385.34 191.849 343.897 144.214C300.139 93.917 227.172 64.489 161.381 75.259C97.961 85.641 70.8077 160.238 18.4417 197.489C-33.1483 234.188 -114.308 233.695 -141.629 290.808C-169.167 348.377 -139.972 417.051 -114.597 475.6C-91.4966 528.91 -48.9432 567.54 -5.15811 605.72C42.2164 647.04 86.4452 708.06 149.26 705.71Z" stroke="#333333" stroke-width="2"/>
<path fill-rule="evenodd" clip-rule="evenodd" d="M149.682 777.73C226.645 774.85 266.529 686.22 329.008 641.19C390.053 597.19 488.663 589.11 511.058 517.27C533.51 445.249 452.608 383.713 431.887 311.176C410.6 236.657 439.455 147.007 388.587 88.537C334.877 26.8 245.315 -9.31995 164.56 3.90005C86.7166 16.6421 53.3877 108.205 -10.8882 153.929C-74.2115 198.974 -173.83 198.369 -207.364 268.472C-241.166 339.134 -205.331 423.426 -174.185 495.3C-145.83 560.73 -93.5987 608.14 -39.8554 655.01C18.2938 705.72 72.5817 780.62 149.682 777.73Z" stroke="#333333" stroke-width="2"/>
</svg>
