<svg width="18" height="23" viewBox="0 0 18 23" fill="none" xmlns="http://www.w3.org/2000/svg">
<path d="M9 15.625C10.2925 15.6235 11.5316 15.1094 12.4455 14.1955C13.3594 13.2816 13.8735 12.0425 13.875 10.75V5.5C13.875 4.20707 13.3614 2.96709 12.4471 2.05285C11.5329 1.13861 10.2929 0.625 9 0.625C7.70707 0.625 6.46709 1.13861 5.55285 2.05285C4.63861 2.96709 4.125 4.20707 4.125 5.5V10.75C4.12649 12.0425 4.64058 13.2816 5.5545 14.1955C6.46842 15.1094 7.70753 15.6235 9 15.625ZM6.375 5.5C6.375 4.80381 6.65156 4.13613 7.14384 3.64384C7.63613 3.15156 8.30381 2.875 9 2.875C9.69619 2.875 10.3639 3.15156 10.8562 3.64384C11.3484 4.13613 11.625 4.80381 11.625 5.5V10.75C11.625 11.4462 11.3484 12.1139 10.8562 12.6062C10.3639 13.0984 9.69619 13.375 9 13.375C8.30381 13.375 7.63613 13.0984 7.14384 12.6062C6.65156 12.1139 6.375 11.4462 6.375 10.75V5.5ZM10.125 19.3019V21.25C10.125 21.5484 10.0065 21.8345 9.79549 22.0455C9.58452 22.2565 9.29837 22.375 9 22.375C8.70163 22.375 8.41548 22.2565 8.2045 22.0455C7.99353 21.8345 7.875 21.5484 7.875 21.25V19.3019C5.80129 19.0262 3.89805 18.0074 2.51871 16.4347C1.13937 14.8619 0.377651 12.842 0.375 10.75C0.375 10.4516 0.493526 10.1655 0.704505 9.9545C0.915483 9.74353 1.20163 9.625 1.5 9.625C1.79837 9.625 2.08452 9.74353 2.2955 9.9545C2.50647 10.1655 2.625 10.4516 2.625 10.75C2.625 12.4408 3.29665 14.0623 4.49219 15.2578C5.68774 16.4534 7.30925 17.125 9 17.125C10.6908 17.125 12.3123 16.4534 13.5078 15.2578C14.7034 14.0623 15.375 12.4408 15.375 10.75C15.375 10.4516 15.4935 10.1655 15.7045 9.9545C15.9155 9.74353 16.2016 9.625 16.5 9.625C16.7984 9.625 17.0845 9.74353 17.2955 9.9545C17.5065 10.1655 17.625 10.4516 17.625 10.75C17.6223 12.842 16.8606 14.8619 15.4813 16.4347C14.1019 18.0074 12.1987 19.0262 10.125 19.3019Z" fill="#999999"/>
</svg>
