<svg width="56" height="48" viewBox="0 0 56 48" fill="none" xmlns="http://www.w3.org/2000/svg">
<path d="M40.5 0C35.3375 0 30.8175 2.22 28 5.9725C25.1825 2.22 20.6625 0 15.5 0C11.3906 0.00463184 7.45077 1.63915 4.54496 4.54496C1.63915 7.45077 0.00463184 11.3906 0 15.5C0 33 25.9475 47.165 27.0525 47.75C27.3437 47.9067 27.6693 47.9887 28 47.9887C28.3307 47.9887 28.6563 47.9067 28.9475 47.75C30.0525 47.165 56 33 56 15.5C55.9954 11.3906 54.3609 7.45077 51.455 4.54496C48.5492 1.63915 44.6094 0.00463184 40.5 0ZM28 43.7C23.435 41.04 4 28.9225 4 15.5C4.00397 12.4512 5.21685 9.52847 7.37266 7.37266C9.52846 5.21685 12.4512 4.00397 15.5 4C20.3625 4 24.445 6.59 26.15 10.75C26.3007 11.1168 26.557 11.4306 26.8864 11.6514C27.2158 11.8722 27.6034 11.9901 28 11.9901C28.3966 11.9901 28.7842 11.8722 29.1136 11.6514C29.443 11.4306 29.6993 11.1168 29.85 10.75C31.555 6.5825 35.6375 4 40.5 4C43.5488 4.00397 46.4715 5.21685 48.6273 7.37266C50.7832 9.52847 51.996 12.4512 52 15.5C52 28.9025 32.56 41.0375 28 43.7Z" fill="#B3B3B3"/>
</svg>
