<svg width="390" height="745" viewBox="0 0 390 745" fill="none" xmlns="http://www.w3.org/2000/svg">
<path fill-rule="evenodd" clip-rule="evenodd" d="M110.863 899.921C46.8459 871.76 42.7963 783.594 5.09618 724.688C-31.7386 667.134 -112.297 627.351 -107.192 559.209C-102.076 490.896 -13.1983 465.983 28.5432 411.664C71.4256 355.861 77.0293 270.522 139.523 238.157C205.508 203.985 293.201 203.425 356.966 241.58C418.432 278.359 415.966 366.809 454.952 426.9C493.36 486.1 577.673 518.888 582.554 589.287C587.474 660.247 529.042 719.439 478.72 769.711C432.909 815.477 372.96 838.051 311.917 859.658C245.869 883.037 174.995 928.132 110.863 899.921Z" stroke="#E6E6E6" stroke-width="2"/>
<path fill-rule="evenodd" clip-rule="evenodd" d="M124.422 866.25C66.9878 840.985 63.3546 761.886 29.5311 709.037C-3.51594 657.401 -75.7902 621.708 -71.2109 560.574C-66.6202 499.286 13.1178 476.934 50.5671 428.201C89.0399 378.136 94.0674 301.572 150.135 272.536C209.334 241.877 288.01 241.375 345.218 275.607C400.364 308.604 398.151 387.958 433.129 441.87C467.587 494.982 543.23 524.399 547.609 587.559C552.023 651.222 499.599 704.327 454.452 749.43C413.352 790.49 359.568 810.742 304.801 830.128C245.546 851.102 181.96 891.561 124.422 866.25Z" stroke="#E6E6E6" stroke-width="2"/>
<path fill-rule="evenodd" clip-rule="evenodd" d="M97.5166 933.064C27.0196 902.052 22.5601 804.963 -18.956 740.094C-59.5191 676.715 -148.231 632.905 -142.61 557.866C-136.975 482.639 -39.1023 455.203 6.86426 395.387C54.0872 333.935 60.258 239.958 129.077 204.318C201.741 166.687 298.31 166.071 368.529 208.087C436.217 248.589 433.501 345.992 476.433 412.165C518.729 477.357 611.576 513.463 616.951 590.988C622.369 669.13 558.022 734.314 502.607 789.674C452.159 840.072 386.142 864.931 318.92 888.726C246.188 914.471 168.14 964.131 97.5166 933.064Z" stroke="#E6E6E6" stroke-width="2"/>
<path fill-rule="evenodd" clip-rule="evenodd" d="M20.1304 936.607C-50.584 890.249 -37.8142 784.31 -71.0104 706.544C-103.445 630.562 -191.563 567.044 -171.875 486.809C-152.137 406.373 -41.185 394.406 19.431 337.967C81.7038 279.986 105.42 179.344 186.399 153.227C271.902 125.65 376.581 142.487 444.999 200.712C510.951 256.838 490.356 361.815 524.849 441.25C558.831 519.508 652.822 575.435 644.59 660.354C636.293 745.951 554.801 804.869 484.762 854.77C421.001 900.197 345.01 915.149 267.908 928.729C184.485 943.423 90.9716 983.048 20.1304 936.607Z" stroke="#E6E6E6" stroke-width="2"/>
</svg>
