<svg width="22" height="20" viewBox="0 0 22 20" fill="none" xmlns="http://www.w3.org/2000/svg">
<path d="M21.5395 3.31963C21.4544 3.11397 21.3101 2.93819 21.1251 2.81453C20.94 2.69088 20.7224 2.62489 20.4998 2.62494H17.8579C17.4139 1.94146 16.8078 1.37838 16.0935 0.985819C15.3792 0.59326 14.5789 0.383407 13.7639 0.374941C13.128 0.366403 12.4968 0.485178 11.9076 0.724271C11.3183 0.963363 10.7828 1.31794 10.3326 1.76713C9.86971 2.22115 9.50227 2.76316 9.25191 3.36127C9.00156 3.95939 8.87334 4.60154 8.87482 5.24994V5.32307C5.42201 4.23838 2.6517 1.48869 2.6217 1.45775C2.47075 1.30563 2.27948 1.19979 2.07042 1.15268C1.86135 1.10558 1.64318 1.11916 1.44158 1.19185C1.23997 1.26453 1.06332 1.39329 0.932416 1.56296C0.801507 1.73264 0.721786 1.93618 0.702634 2.14963C0.111072 8.72807 3.01357 12.2549 4.64576 13.6921C3.28732 15.0778 1.37482 15.8137 1.35607 15.8212C1.19706 15.8804 1.05349 15.9748 0.936121 16.0973C0.81875 16.2198 0.730616 16.3673 0.678315 16.5287C0.626014 16.6902 0.610901 16.8613 0.634107 17.0294C0.657314 17.1975 0.718239 17.3581 0.812322 17.4993C0.999822 17.7703 2.07232 19.1249 5.49982 19.1249C12.2733 19.1249 17.9404 13.9443 18.5873 7.25338L21.2948 4.54588C21.4523 4.38862 21.5597 4.18816 21.6032 3.96988C21.6468 3.7516 21.6246 3.5253 21.5395 3.31963ZM16.7048 5.95494C16.5109 6.14804 16.3945 6.40554 16.3776 6.67869C16.0129 12.3965 11.2354 16.8749 5.49982 16.8749C5.10827 16.8772 4.71703 16.8525 4.32888 16.8009C5.31232 16.1765 6.41107 15.2878 7.18732 14.1243C7.27223 13.997 7.33026 13.8536 7.35786 13.703C7.38545 13.5525 7.38203 13.3979 7.34781 13.2487C7.31358 13.0995 7.24927 12.9588 7.1588 12.8354C7.06834 12.7119 6.95363 12.6082 6.8217 12.5306C6.81045 12.524 5.66576 11.8284 4.62513 10.2412C3.58451 8.65401 3.00701 6.77244 2.89451 4.63682C4.50326 5.84994 6.99982 7.3865 9.81232 7.85994C9.9737 7.88722 10.1391 7.87896 10.2969 7.83573C10.4548 7.79251 10.6013 7.71536 10.7263 7.60967C10.8513 7.50399 10.9517 7.3723 11.0205 7.22382C11.0893 7.07533 11.1249 6.91361 11.1248 6.74994V5.24994C11.124 4.89957 11.1934 4.55258 11.3288 4.22943C11.4642 3.90628 11.6629 3.61351 11.9133 3.36838C12.1523 3.12922 12.4368 2.94026 12.7499 2.81259C13.0631 2.68493 13.3986 2.62112 13.7367 2.62494C14.2479 2.63179 14.7467 2.78349 15.1752 3.06244C15.6036 3.34139 15.9442 3.73615 16.1573 4.20088C16.245 4.40135 16.3893 4.5719 16.5725 4.69162C16.7556 4.81135 16.9697 4.87505 17.1886 4.87494H17.7811L16.7048 5.95494Z" fill="#115DB1"/>
</svg>
