<svg width="400" height="600" viewBox="0 100 400 350" fill="none" xmlns="http://www.w3.org/2000/svg">
<mask id="mask0_1_19" style="mask-type:luminance" maskUnits="userSpaceOnUse" x="0" y="0" width="400" height="600">
<path d="M0 0H400V600H0V0Z" fill="white"/>
</mask>
<g mask="url(#mask0_1_19)">
<path fill-rule="evenodd" clip-rule="evenodd" d="M378.586 839.127C429.942 791.653 405.058 706.975 421.519 639.002C437.602 572.59 500.812 508.74 473.794 445.976C446.709 383.053 354.563 388.443 297.407 350.679C238.689 311.884 205.598 233.022 135.972 222.775C62.4553 211.955 -20.6395 239.985 -68.5022 296.826C-114.639 351.618 -83.5024 434.442 -100.793 503.954C-117.828 572.435 -186.866 630.893 -168.554 699.044C-150.096 767.738 -75.5722 804.673 -11.6219 835.816C46.5961 864.168 110.629 865.987 175.381 866.537C245.442 867.131 327.138 886.687 378.586 839.127Z" stroke="#333333" stroke-width="1.5"/>
<path fill-rule="evenodd" clip-rule="evenodd" d="M354.801 811.708C400.876 769.115 378.551 693.145 393.319 632.162C407.748 572.579 464.458 515.294 440.219 458.984C415.918 402.532 333.248 407.367 281.97 373.487C229.289 338.681 199.601 267.929 137.134 258.735C71.1776 249.027 -3.37258 274.175 -46.3136 325.171C-87.7065 374.329 -59.7713 448.637 -75.2842 511C-90.5673 572.439 -152.506 624.887 -136.077 686.03C-119.517 747.66 -52.6566 780.797 4.71776 808.737C56.9492 834.174 114.398 835.806 172.491 836.299C235.347 836.832 308.643 854.377 354.801 811.708Z" stroke="#333333" stroke-width="1.5"/>
<path fill-rule="evenodd" clip-rule="evenodd" d="M401.999 866.116C458.553 813.837 431.15 720.588 449.277 645.735C466.988 572.601 536.596 502.288 506.844 433.171C477.017 363.88 375.544 369.815 312.603 328.229C247.942 285.507 211.502 198.663 134.827 187.378C53.8698 175.463 -37.6356 206.33 -90.3429 268.924C-141.15 329.262 -106.861 420.47 -125.903 497.017C-144.661 572.43 -220.688 636.806 -200.522 711.854C-180.196 787.501 -98.1285 828.175 -27.7053 862.47C 36.4054 893.692 106.919 895.695 178.226 896.3C255.378 896.955 345.343 918.49 401.999 866.116Z" stroke="#333333" stroke-width="1.5"/>
<path fill-rule="evenodd" clip-rule="evenodd" d="M450.667 863.63C508.207 801.672 470.414 701.884 484 618.427C497.274 536.886 567.597 454.096 529.249 380.921C490.805 307.561 380.219 322.54 307.841 282.278C233.485 240.916 186.334 148.894 101.456 142.95C11.8355 136.674 -85.7552 178.113 -138.221 251.041C-188.796 321.34 -143.636 418.32 -158.081 503.707C-172.312 587.83 -250.157 664.657 -221.808 745.127C-193.233 826.239 -99.9939 863.904 -20.0346 895.56C 52.7573 924.379 130.116 920.677 208.226 915.379C292.739 909.646 393.024 925.7 450.667 863.63Z" stroke="#333333" stroke-width="1.5"/>
</g>
</svg>
