<svg width="28" height="28" viewBox="0 0 28 28" fill="none" xmlns="http://www.w3.org/2000/svg">
<path d="M14 2.1875C11.6637 2.1875 9.37989 2.88029 7.43733 4.17827C5.49478 5.47624 3.98074 7.3211 3.08668 9.47955C2.19262 11.638 1.95869 14.0131 2.41448 16.3045C2.87027 18.5959 3.9953 20.7007 5.64731 22.3527C7.29931 24.0047 9.4041 25.1297 11.6955 25.5855C13.9869 26.0413 16.362 25.8074 18.5205 24.9133C20.6789 24.0193 22.5238 22.5052 23.8217 20.5627C25.1197 18.6201 25.8125 16.3363 25.8125 14C25.809 10.8682 24.5634 7.86566 22.3489 5.65114C20.1343 3.43662 17.1318 2.19097 14 2.1875ZM8.70297 21.4998C9.31227 20.6667 10.1095 19.9891 11.0299 19.5219C11.9503 19.0548 12.9679 18.8113 14 18.8113C15.0322 18.8113 16.0497 19.0548 16.9701 19.5219C17.8905 19.9891 18.6877 20.6667 19.297 21.4998C17.7489 22.5977 15.8979 23.1875 14 23.1875C12.1021 23.1875 10.2511 22.5977 8.70297 21.4998ZM10.9375 13.125C10.9375 12.5193 11.1171 11.9272 11.4536 11.4236C11.7901 10.9199 12.2684 10.5274 12.828 10.2956C13.3876 10.0638 14.0034 10.0032 14.5975 10.1213C15.1915 10.2395 15.7372 10.5312 16.1655 10.9595C16.5938 11.3878 16.8855 11.9335 17.0037 12.5275C17.1218 13.1216 17.0612 13.7374 16.8294 14.297C16.5976 14.8566 16.2051 15.3349 15.7014 15.6714C15.1978 16.0079 14.6057 16.1875 14 16.1875C13.1878 16.1875 12.4088 15.8648 11.8345 15.2905C11.2602 14.7162 10.9375 13.9372 10.9375 13.125ZM21.2188 19.6809C20.368 18.5989 19.2837 17.7232 18.0469 17.1194C18.8351 16.3211 19.3697 15.3076 19.5834 14.2063C19.7971 13.105 19.6803 11.9651 19.2477 10.93C18.8151 9.89496 18.0861 9.01092 17.1524 8.38913C16.2186 7.76733 15.1218 7.43557 14 7.43557C12.8782 7.43557 11.7814 7.76733 10.8476 8.38913C9.91389 9.01092 9.18487 9.89496 8.75231 10.93C8.31974 11.9651 8.20295 13.105 8.41662 14.2063C8.63029 15.3076 9.16487 16.3211 9.95313 17.1194C8.71628 17.7232 7.63196 18.5989 6.78126 19.6809C5.71271 18.3264 5.04716 16.6983 4.8608 14.9831C4.67443 13.268 4.97478 11.535 5.72746 9.98252C6.48014 8.43008 7.65473 7.12094 9.11679 6.20497C10.5788 5.289 12.2693 4.80321 13.9945 4.80321C15.7198 4.80321 17.4102 5.289 18.8723 6.20497C20.3343 7.12094 21.5089 8.43008 22.2616 9.98252C23.0143 11.535 23.3146 13.268 23.1283 14.9831C22.9419 16.6983 22.2764 18.3264 21.2078 19.6809H21.2188Z" fill="#999999"/>
</svg>
