<svg width="29" height="29" viewBox="0 0 29 29" fill="none" xmlns="http://www.w3.org/2000/svg">
<path d="M25.5563 7.09563L15.5875 1.63887C15.2544 1.45552 14.8803 1.35938 14.5 1.35938C14.1197 1.35938 13.7456 1.45552 13.4125 1.63887L3.44375 7.09563C3.08705 7.2908 2.78944 7.57837 2.58215 7.92817C2.37486 8.27797 2.26553 8.67711 2.26563 9.08372V19.9157C2.26553 20.3223 2.37486 20.7214 2.58215 21.0712C2.78944 21.421 3.08705 21.7086 3.44375 21.9038L13.4125 27.3605C13.7456 27.5441 14.1197 27.6403 14.5 27.6403C14.8803 27.6403 15.2544 27.5441 15.5875 27.3605L25.5563 21.9038C25.913 21.7086 26.2106 21.421 26.4178 21.0712C26.6251 20.7214 26.7345 20.3223 26.7344 19.9157V9.08372C26.7345 8.67711 26.6251 8.27797 26.4178 7.92817C26.2106 7.57837 25.913 7.2908 25.5563 7.09563ZM14.5 4.14239L22.6562 8.60907L20.2286 9.93786L12.0724 5.47231L14.5 4.14239ZM14.5 13.0723L6.34375 8.60907L9.23922 7.02313L17.3955 11.4875L14.5 13.0723ZM4.98438 10.9642L13.1406 15.4275V24.1127L4.98438 19.6472V10.9642ZM15.8594 24.1127V15.4275L18.5781 13.9401V17.2184C18.5781 17.579 18.7213 17.9247 18.9763 18.1797C19.2312 18.4346 19.577 18.5778 19.9375 18.5778C20.298 18.5778 20.6438 18.4346 20.8987 18.1797C21.1537 17.9247 21.2969 17.579 21.2969 17.2184V12.4516L24.0156 10.9642V19.6472L15.8594 24.1127Z" fill="#115DB1"/>
</svg>
