<svg width="30" height="25" viewBox="0 0 30 25" fill="none" xmlns="http://www.w3.org/2000/svg">
<path d="M28.125 21.9059H26.7188V11.5407C26.7182 11.2171 26.6509 10.8971 26.5211 10.6007C26.3912 10.3042 26.2016 10.0378 25.9641 9.81805L16.5949 0.973908L16.5762 0.95633C16.1456 0.56229 15.5831 0.34375 14.9994 0.34375C14.4157 0.34375 13.8532 0.56229 13.4227 0.95633L13.4027 0.973908L4.03594 9.81805C3.7984 10.0378 3.60877 10.3042 3.47891 10.6007C3.34906 10.8971 3.28176 11.2171 3.28125 11.5407V21.9059H1.875C1.50204 21.9059 1.14435 22.0541 0.880631 22.3178C0.616908 22.5815 0.46875 22.9392 0.46875 23.3122C0.46875 23.6852 0.616908 24.0428 0.880631 24.3066C1.14435 24.5703 1.50204 24.7184 1.875 24.7184H28.125C28.498 24.7184 28.8556 24.5703 29.1194 24.3066C29.3831 24.0428 29.5312 23.6852 29.5312 23.3122C29.5312 22.9392 29.3831 22.5815 29.1194 22.3178C28.8556 22.0541 28.498 21.9059 28.125 21.9059ZM6.09375 11.7434L15 3.33524L23.9062 11.7434V21.9059H19.2188V16.7497C19.2188 16.4419 19.1581 16.1371 19.0403 15.8528C18.9226 15.5684 18.7499 15.31 18.5323 15.0924C18.3146 14.8748 18.0563 14.7021 17.7719 14.5843C17.4876 14.4666 17.1828 14.4059 16.875 14.4059H13.125C12.5034 14.4059 11.9073 14.6529 11.4677 15.0924C11.0282 15.5319 10.7812 16.1281 10.7812 16.7497V21.9059H6.09375V11.7434ZM16.4062 21.9059H13.5938V17.2184H16.4062V21.9059Z" fill="#333333"/>
</svg>
